<svg xmlns="http://www.w3.org/2000/svg" width="48" height="48" viewBox="0 0 48 48">
    <g fill="none" fill-rule="evenodd">
        <path d="M0 0H48V48H0z"/>
        <g fill="#FFF" fill-rule="nonzero">
            <path d="M40 1c-2.22-.7-4.66-1-7-1-3.9 0-8.1.8-11 3-2.9-2.2-7.1-3-11-3C7.1 0 2.9.8 0 3v29.3c0 .5.5 1 1 1 .2 0 .3-.1.5-.1C4.2 31.9 8.1 31 11 31c3.9 0 8.1.8 11 3 2.7-1.7 7.6-3 11-3 3.3 0 6.7.6 9.5 2.1.2.1.3.1.5.1.5 0 1-.5 1-1V3c-1.2-.9-2.5-1.5-4-2zm0 27c-2.2-.7-4.6-1-7-1-3.4 0-8.3 1.3-11 3V7c2.7-1.7 7.6-3 11-3 2.4 0 4.8.3 7 1v23z" transform="translate(2 7)"/>
            <g>
                <path d="M9 3c1.76 0 3.46.18 5 .52V.48C12.42.18 10.72 0 9 0 5.6 0 2.52.58 0 1.66v3.32C2.26 3.7 5.4 3 9 3zM0 6.98v3.32c2.26-1.28 5.4-1.98 9-1.98 1.76 0 3.46.18 5 .52V5.8c-1.58-.3-3.28-.48-5-.48-3.4 0-6.48.6-9 1.66zM9 10.66c-3.4 0-6.48.58-9 1.66v3.32c2.26-1.28 5.4-1.98 9-1.98 1.76 0 3.46.18 5 .52v-3.04c-1.58-.32-3.28-.48-5-.48z" transform="translate(2 7) translate(24 9)"/>
            </g>
        </g>
    </g>
</svg>
