<svg xmlns="http://www.w3.org/2000/svg" width="48" height="48" viewBox="0 0 48 48">
    <g fill="none" fill-rule="evenodd">
        <path d="M0 0L48 0 48 48 0 48z"/>
        <circle cx="31" cy="19" r="3" fill="#FFF" fill-rule="nonzero"/>
        <circle cx="17" cy="19" r="3" fill="#FFF" fill-rule="nonzero"/>
        <path fill="#FFF" fill-rule="nonzero" d="M24 32c-2.96 0-5.5-1.62-6.9-4h-3.34c1.6 4.1 5.58 7 10.24 7s8.64-2.9 10.24-7H30.9c-1.38 2.38-3.94 4-6.9 4zm-.02-28C12.94 4 4 12.96 4 24s8.94 20 19.98 20C35.04 44 44 35.04 44 24S35.04 4 23.98 4zM24 40c-8.84 0-16-7.16-16-16S15.16 8 24 8s16 7.16 16 16-7.16 16-16 16z"/>
    </g>
</svg>
